Coordinates
version=1
nRows=6
nColumns=36
inDegrees=yes

Units are S.I. units (second, meters, Newtons, ...)
If the header above contains a line with 'inDegrees', this indicates whether rotational values are in degrees (yes) or radians (no).

endheader
time	pelvis_tilt	pelvis_list	pelvis_rotation	pelvis_tx	pelvis_ty	pelvis_tz	hip_flexion_r	hip_adduction_r	hip_rotation_r	knee_angle_r	knee_angle_r_beta	ankle_angle_r	subtalar_angle_r	mtp_angle_r	hip_flexion_l	hip_adduction_l	hip_rotation_l	knee_angle_l	knee_angle_l_beta	ankle_angle_l	subtalar_angle_l	mtp_angle_l	lumbar_extension	lumbar_bending	lumbar_rotation	arm_flex_r	arm_add_r	arm_rot_r	elbow_flex_r	pro_sup_r	arm_flex_l	arm_add_l	arm_rot_l	elbow_flex_l	pro_sup_l
      0.96000000	     -6.96500358	     -0.62398253	      3.38149022	     -0.75516156	      1.18719262	     -0.60683520	     17.13688032	     -1.81023820	     -6.88725954	     64.44418805	      1.12476327	      1.14064265	    -16.20997375	     -6.06546293	     17.89558815	     -1.38322468	     -1.07935404	     61.03835557	      1.06532027	     -1.97457153	    -15.31483840	     -6.06546293	    -10.81626790	      3.04227568	     -4.83887112	     10.09630151	     -4.25045147	     -4.79882886	     87.24563651	    107.74847738	     21.30481560	    -11.99943474	      4.90450105	     70.64291718	    109.39036879
      0.97000000	     -5.38513441	     -0.39455384	      3.38314187	     -0.74075396	      1.19672480	     -0.60690549	     15.61461017	     -2.48433223	     -7.35095913	     64.04688759	      1.11782906	     -6.12244034	    -17.05295727	     -6.11531421	     16.22526565	     -1.79051950	     -1.84747792	     59.98512841	      1.04693799	    -10.78414734	    -16.38853898	     -6.11531421	    -11.48968365	      2.95016969	     -4.99806638	      9.13146027	     -4.14590909	     -5.32850390	     88.43039444	    107.83257601	     20.39630706	    -12.08106755	      3.99439855	     72.02141781	    109.49982548
      0.98000000	     -3.85156160	     -0.45168900	      3.54154715	     -0.72612423	      1.20581287	     -0.60700097	     13.98454387	     -2.90435964	     -8.13651517	     63.17217566	      1.10256246	    -12.65143248	    -17.75688991	     -6.16373195	     14.64954251	     -2.55247499	     -2.52784894	     58.74752945	      1.02533782	    -19.61006768	    -17.24864636	     -6.16373195	    -12.17028342	      3.25228790	     -5.27914409	      8.26126280	     -4.02925264	     -5.75133764	     89.25709628	    107.85515596	     19.39109247	    -12.06151783	      3.03957753	     73.05385412	    109.56738916
      0.99000000	     -2.80131953	     -0.66421922	      3.70737792	     -0.71196508	      1.21345260	     -0.60710836	     12.91967052	     -3.16138411	     -8.88020750	     62.20575966	      1.08569532	    -15.35934599	    -16.69281702	     -6.17794931	     13.71357854	     -3.47840190	     -3.08668637	     57.60409241	      1.00538108	    -24.72851492	    -15.30994213	     -6.17794931	    -12.41950761	      3.72530261	     -5.43244589	      7.34108860	     -3.92749787	     -6.36574177	     89.98289204	    107.86317964	     18.46055728	    -12.01147530	      2.37678946	     73.65130287	    109.59273126
      1.00000000	     -1.88142604	     -0.55895907	      3.56287354	     -0.69888287	      1.22012676	     -0.60696671	     12.21022579	     -3.70714069	     -9.34408883	     61.16265285	      1.06748967	    -15.89899237	    -17.31084199	     -6.23076681	     12.80774457	     -3.94185906	     -4.05540981	     56.03909503	      0.97806672	    -28.90552699	    -16.93477535	     -6.23076681	    -12.97653757	      3.76778162	     -5.44279695	      6.72754179	     -3.81966315	     -6.90788791	     90.45187393	    107.83501533	     17.53706019	    -11.94330490	      1.29806318	     74.48105898	    109.67034770
      1.01000000	     -1.72046459	     -0.52458991	      3.34970309	     -0.68675450	      1.22472167	     -0.60657594	     12.54364204	     -4.14834883	     -9.63429097	     59.83942424	      1.04439498	    -15.30957622	    -17.28004307	     -6.23620221	     12.97556252	     -4.43358431	     -4.94279988	     54.64942031	      0.95381232	    -28.65631286	    -16.75102641	     -6.23620221	    -12.76084646	      3.81570846	     -5.26466678	      6.08405904	     -3.81113572	     -7.37654782	     90.61784401	    107.81450427	     16.80121060	    -12.08688480	      0.99244775	     74.63503649	    109.67267101
